# ProBuilder 5.0.6
# https://unity3d.com/unity/features/worldbuilding/probuilder
# 12.09.2022 12:49:12

mtllib ./Pipe.mtl
o Pipe

g Pipe
v -2.377641 -0.5 0.7725425
v -2.5 -0.5 0
v -2.377641 0.5 0.7725425
v -2.5 0.5 0
v -2.25 -0.5 0
v -2.139877 -0.5 0.6952882
v -2.25 0.5 0
v -2.139877 0.5 0.6952882
v -2.022542 -0.5 1.469463
v -2.022542 0.5 1.469463
v -1.820288 -0.5 1.322517
v -1.820288 0.5 1.322517
v -1.469463 -0.5 2.022542
v -1.469463 0.5 2.022542
v -1.322517 -0.5 1.820288
v -1.322517 0.5 1.820288
v -0.7725424 -0.5 2.377641
v -0.7725424 0.5 2.377641
v -0.6952882 -0.5 2.139877
v -0.6952882 0.5 2.139877
v 1.092785E-07 -0.5 2.5
v 1.092785E-07 0.5 2.5
v 9.835063E-08 -0.5 2.25
v 9.835063E-08 0.5 2.25
v 0.7725424 -0.5 2.377641
v 0.7725424 0.5 2.377641
v 0.6952881 -0.5 2.139877
v 0.6952881 0.5 2.139877
v 1.469463 -0.5 2.022542
v 1.469463 0.5 2.022542
v 1.322517 -0.5 1.820288
v 1.322517 0.5 1.820288
v 2.022543 -0.5 1.469463
v 2.022543 0.5 1.469463
v 1.820288 -0.5 1.322517
v 1.820288 0.5 1.322517
v 2.377641 -0.5 0.7725426
v 2.377641 0.5 0.7725426
v 2.139877 -0.5 0.6952884
v 2.139877 0.5 0.6952884
v 2.5 -0.5 -2.185569E-07
v 2.5 0.5 -2.185569E-07
v 2.25 -0.5 -1.967013E-07
v 2.25 0.5 -1.967013E-07
v 2.377641 -0.5 -0.7725424
v 2.377641 0.5 -0.7725424
v 2.139877 -0.5 -0.6952882
v 2.139877 0.5 -0.6952882
v 2.022543 -0.5 -1.469463
v 2.022543 0.5 -1.469463
v 1.820288 -0.5 -1.322517
v 1.820288 0.5 -1.322517
v 1.469464 -0.5 -2.022542
v 1.469464 0.5 -2.022542
v 1.322517 -0.5 -1.820288
v 1.322517 0.5 -1.820288
v 0.7725427 -0.5 -2.377641
v 0.7725427 0.5 -2.377641
v 0.6952884 -0.5 -2.139877
v 0.6952884 0.5 -2.139877
v -2.98122E-08 -0.5 -2.5
v -2.98122E-08 0.5 -2.5
v -2.683098E-08 -0.5 -2.25
v -2.683098E-08 0.5 -2.25
v -0.7725428 -0.5 -2.377641
v -0.7725428 0.5 -2.377641
v -0.6952885 -0.5 -2.139877
v -0.6952885 0.5 -2.139877
v -1.469463 -0.5 -2.022543
v -1.469463 0.5 -2.022543
v -1.322516 -0.5 -1.820288
v -1.322516 0.5 -1.820288
v -2.022542 -0.5 -1.469463
v -2.022542 0.5 -1.469463
v -1.820288 -0.5 -1.322517
v -1.820288 0.5 -1.322517
v -2.377641 -0.5 -0.7725424
v -2.377641 0.5 -0.7725424
v -2.139877 -0.5 -0.6952881
v -2.139877 0.5 -0.6952881

vt 0.3910865 -0.5
vt -0.3910857 -0.5
vt 0.3910865 0.5
vt -0.3910857 0.5
vt 0.3519771 -0.5
vt -0.351978 -0.5
vt 0.3519771 0.5
vt -0.351978 0.5
vt -2.5 0
vt -2.377641 0.7725425
vt -2.25 0
vt -2.139877 0.6952882
vt 2.377641 0.7725425
vt 2.5 0
vt 2.139877 0.6952882
vt 2.25 0
vt -2.022542 1.469463
vt -1.820288 1.322517
vt 2.022542 1.469463
vt 1.820288 1.322517
vt -1.469463 2.022542
vt -1.322517 1.820288
vt 1.469463 2.022542
vt 1.322517 1.820288
vt -0.7725424 2.377641
vt -0.6952882 2.139877
vt 0.7725424 2.377641
vt 0.6952882 2.139877
vt 1.092785E-07 2.5
vt 9.835063E-08 2.25
vt 2.377641 -0.7725424
vt 2.139877 -0.6952882
vt -2.377641 -0.7725424
vt -2.139877 -0.6952882
vt 2.022543 -1.469463
vt 1.820288 -1.322517
vt -2.022543 -1.469463
vt -1.820288 -1.322517
vt 1.469464 -2.022542
vt 1.322517 -1.820288
vt -1.469464 -2.022542
vt -1.322517 -1.820288
vt 0.7725427 -2.377641
vt 0.6952884 -2.139877
vt -0.7725427 -2.377641
vt -0.6952884 -2.139877
vt -2.98122E-08 -2.5
vt -2.683098E-08 -2.25

vn -0.9510565 0 0.309017
vn -1 0 -7.543453E-09
vn 1 0 1.50869E-08
vn 0.9510565 0 -0.309017
vn -0.809017 0 0.5877853
vn 0.8090169 0 -0.5877853
vn -0.5877854 0 0.8090169
vn 0.5877854 0 -0.8090169
vn -0.3090169 0 0.9510565
vn 0.3090169 0 -0.9510565
vn 3.017381E-08 0 1
vn -3.017381E-08 0 -1
vn 0.309017 0 0.9510565
vn -0.3090171 0 -0.9510565
vn 0.5877852 0 0.8090171
vn -0.5877853 0 -0.809017
vn 0.809017 0 0.5877852
vn -0.809017 0 -0.5877852
vn 0.9510565 0 0.3090169
vn -0.9510565 0 -0.3090169
vn 0 -1 0
vn 0 1 0

usemtl ProBuilderDefault
f 3/3/1 4/4/2 2/2/2 1/1/1
f 7/7/3 8/8/4 6/6/4 5/5/3
f 10/3/5 3/4/1 1/2/1 9/1/5
f 8/7/4 12/8/6 11/6/6 6/5/4
f 14/3/7 10/4/5 9/2/5 13/1/7
f 12/7/6 16/8/8 15/6/8 11/5/6
f 18/3/9 14/4/7 13/2/7 17/1/9
f 16/7/8 20/8/10 19/6/10 15/5/8
f 22/3/11 18/4/9 17/2/9 21/1/11
f 20/7/10 24/8/12 23/6/12 19/5/10
f 26/3/13 22/4/11 21/2/11 25/1/13
f 24/7/12 28/8/14 27/6/14 23/5/12
f 30/3/15 26/4/13 25/2/13 29/1/15
f 28/7/14 32/8/16 31/6/16 27/5/14
f 34/3/17 30/4/15 29/2/15 33/1/17
f 32/7/16 36/8/18 35/6/18 31/5/16
f 38/3/19 34/4/17 33/2/17 37/1/19
f 36/7/18 40/8/20 39/6/20 35/5/18
f 42/3/3 38/4/19 37/2/19 41/1/3
f 40/7/20 44/8/2 43/6/2 39/5/20
f 46/3/4 42/4/3 41/2/3 45/1/4
f 44/7/2 48/8/1 47/6/1 43/5/2
f 50/3/6 46/4/4 45/2/4 49/1/6
f 48/7/1 52/8/5 51/6/5 47/5/1
f 54/3/8 50/4/6 49/2/6 53/1/8
f 52/7/5 56/8/7 55/6/7 51/5/5
f 58/3/10 54/4/8 53/2/8 57/1/10
f 56/7/7 60/8/9 59/6/9 55/5/7
f 62/3/12 58/4/10 57/2/10 61/1/12
f 60/7/9 64/8/11 63/6/11 59/5/9
f 66/3/14 62/4/12 61/2/12 65/1/14
f 64/7/11 68/8/13 67/6/13 63/5/11
f 70/3/16 66/4/14 65/2/14 69/1/16
f 68/7/13 72/8/15 71/6/15 67/5/13
f 74/3/18 70/4/16 69/2/16 73/1/18
f 72/7/15 76/8/17 75/6/17 71/5/15
f 78/3/20 74/4/18 73/2/18 77/1/20
f 76/7/17 80/8/19 79/6/19 75/5/17
f 4/3/2 78/4/20 77/2/20 2/1/2
f 80/7/19 7/8/3 5/6/3 79/5/19
f 5/11/21 6/12/21 1/10/21 2/9/21
f 8/15/22 7/16/22 4/14/22 3/13/22
f 6/12/21 11/18/21 9/17/21 1/10/21
f 12/20/22 8/15/22 3/13/22 10/19/22
f 11/18/21 15/22/21 13/21/21 9/17/21
f 16/24/22 12/20/22 10/19/22 14/23/22
f 15/22/21 19/26/21 17/25/21 13/21/21
f 20/28/22 16/24/22 14/23/22 18/27/22
f 19/26/21 23/30/21 21/29/21 17/25/21
f 24/30/22 20/28/22 18/27/22 22/29/22
f 23/30/21 27/28/21 25/27/21 21/29/21
f 28/26/22 24/30/22 22/29/22 26/25/22
f 27/28/21 31/24/21 29/23/21 25/27/21
f 32/22/22 28/26/22 26/25/22 30/21/22
f 31/24/21 35/20/21 33/19/21 29/23/21
f 36/18/22 32/22/22 30/21/22 34/17/22
f 35/20/21 39/15/21 37/13/21 33/19/21
f 40/12/22 36/18/22 34/17/22 38/10/22
f 39/15/21 43/16/21 41/14/21 37/13/21
f 44/11/22 40/12/22 38/10/22 42/9/22
f 43/16/21 47/32/21 45/31/21 41/14/21
f 48/34/22 44/11/22 42/9/22 46/33/22
f 47/32/21 51/36/21 49/35/21 45/31/21
f 52/38/22 48/34/22 46/33/22 50/37/22
f 51/36/21 55/40/21 53/39/21 49/35/21
f 56/42/22 52/38/22 50/37/22 54/41/22
f 55/40/21 59/44/21 57/43/21 53/39/21
f 60/46/22 56/42/22 54/41/22 58/45/22
f 59/44/21 63/48/21 61/47/21 57/43/21
f 64/48/22 60/46/22 58/45/22 62/47/22
f 63/48/21 67/46/21 65/45/21 61/47/21
f 68/44/22 64/48/22 62/47/22 66/43/22
f 67/46/21 71/42/21 69/41/21 65/45/21
f 72/40/22 68/44/22 66/43/22 70/39/22
f 71/42/21 75/38/21 73/37/21 69/41/21
f 76/36/22 72/40/22 70/39/22 74/35/22
f 75/38/21 79/34/21 77/33/21 73/37/21
f 80/32/22 76/36/22 74/35/22 78/31/22
f 79/34/21 5/11/21 2/9/21 77/33/21
f 7/16/22 80/32/22 78/31/22 4/14/22

