# ProBuilder 5.0.6
# https://unity3d.com/unity/features/worldbuilding/probuilder
# 12.09.2022 12:50:14

mtllib ./Platform.mtl
o Platform

g Cylinder
v -5 -0.5 0
v -5 0.5 0
v -4.975924 -0.5 0.4900857
v -4.975924 0.5 0.4900857
v -4.903926 -0.5 0.9754516
v -4.903926 0.5 0.9754516
v -4.784702 -0.5 1.451423
v -4.784702 0.5 1.451423
v -4.619398 -0.5 1.913417
v -4.619398 0.5 1.913417
v -4.409606 -0.5 2.356984
v -4.409606 0.5 2.356984
v -4.157348 -0.5 2.777851
v -4.157348 0.5 2.777851
v -3.865052 -0.5 3.171966
v -3.865052 0.5 3.171966
v -3.535534 -0.5 3.535534
v -3.535534 0.5 3.535534
v -3.171966 -0.5 3.865052
v -3.171966 0.5 3.865052
v -2.777851 -0.5 4.157348
v -2.777851 0.5 4.157348
v -2.356984 -0.5 4.409606
v -2.356984 0.5 4.409606
v -1.913417 -0.5 4.619398
v -1.913417 0.5 4.619398
v -1.451423 -0.5 4.784702
v -1.451423 0.5 4.784702
v -0.9754518 -0.5 4.903926
v -0.9754518 0.5 4.903926
v -0.4900857 -0.5 4.975924
v -0.4900857 0.5 4.975924
v 2.185569E-07 -0.5 5
v 2.185569E-07 0.5 5
v 0.4900855 -0.5 4.975924
v 0.4900855 0.5 4.975924
v 0.9754516 -0.5 4.903926
v 0.9754516 0.5 4.903926
v 1.451424 -0.5 4.784701
v 1.451424 0.5 4.784701
v 1.913417 -0.5 4.619398
v 1.913417 0.5 4.619398
v 2.356983 -0.5 4.409606
v 2.356983 0.5 4.409606
v 2.777851 -0.5 4.157348
v 2.777851 0.5 4.157348
v 3.171966 -0.5 3.865052
v 3.171966 0.5 3.865052
v 3.535534 -0.5 3.535534
v 3.535534 0.5 3.535534
v 3.865052 -0.5 3.171966
v 3.865052 0.5 3.171966
v 4.157348 -0.5 2.777851
v 4.157348 0.5 2.777851
v 4.409606 -0.5 2.356984
v 4.409606 0.5 2.356984
v 4.619398 -0.5 1.913417
v 4.619398 0.5 1.913417
v 4.784702 -0.5 1.451424
v 4.784702 0.5 1.451424
v 4.903926 -0.5 0.9754515
v 4.903926 0.5 0.9754515
v 4.975924 -0.5 0.4900855
v 4.975924 0.5 0.4900855
v 5 -0.5 -4.371139E-07
v 5 0.5 -4.371139E-07
v 4.975924 -0.5 -0.4900852
v 4.975924 0.5 -0.4900852
v 4.903926 -0.5 -0.9754512
v 4.903926 0.5 -0.9754512
v 4.784702 -0.5 -1.451423
v 4.784702 0.5 -1.451423
v 4.619398 -0.5 -1.913417
v 4.619398 0.5 -1.913417
v 4.409606 -0.5 -2.356984
v 4.409606 0.5 -2.356984
v 4.157348 -0.5 -2.777852
v 4.157348 0.5 -2.777852
v 3.865053 -0.5 -3.171966
v 3.865053 0.5 -3.171966
v 3.535534 -0.5 -3.535533
v 3.535534 0.5 -3.535533
v 3.171967 -0.5 -3.865052
v 3.171967 0.5 -3.865052
v 2.777852 -0.5 -4.157347
v 2.777852 0.5 -4.157347
v 2.356983 -0.5 -4.409606
v 2.356983 0.5 -4.409606
v 1.913418 -0.5 -4.619398
v 1.913418 0.5 -4.619398
v 1.451423 -0.5 -4.784702
v 1.451423 0.5 -4.784702
v 0.9754519 -0.5 -4.903926
v 0.9754519 0.5 -4.903926
v 0.490087 -0.5 -4.975924
v 0.490087 0.5 -4.975924
v -5.96244E-08 -0.5 -5
v -5.96244E-08 0.5 -5
v -0.4900848 -0.5 -4.975924
v -0.4900848 0.5 -4.975924
v -0.9754521 -0.5 -4.903926
v -0.9754521 0.5 -4.903926
v -1.451423 -0.5 -4.784702
v -1.451423 0.5 -4.784702
v -1.913418 -0.5 -4.619397
v -1.913418 0.5 -4.619397
v -2.356984 -0.5 -4.409606
v -2.356984 0.5 -4.409606
v -2.77785 -0.5 -4.157349
v -2.77785 0.5 -4.157349
v -3.171967 -0.5 -3.865052
v -3.171967 0.5 -3.865052
v -3.535533 -0.5 -3.535534
v -3.535533 0.5 -3.535534
v -3.865053 -0.5 -3.171966
v -3.865053 0.5 -3.171966
v -4.157348 -0.5 -2.777852
v -4.157348 0.5 -2.777852
v -4.409606 -0.5 -2.356985
v -4.409606 0.5 -2.356985
v -4.619398 -0.5 -1.913417
v -4.619398 0.5 -1.913417
v -4.784701 -0.5 -1.451424
v -4.784701 0.5 -1.451424
v -4.903926 -0.5 -0.9754512
v -4.903926 0.5 -0.9754512
v -4.975924 -0.5 -0.4900862
v -4.975924 0.5 -0.4900862
v 0 -0.5 0
v 0 0.5 0

vt -0.2453393 -0.5
vt -0.2453393 0.5
vt 0.2453374 -0.5
vt 0.2453374 0.5
vt -5 0
vt 0 0
vt -4.975924 0.4900857
vt 5 0
vt 4.975924 0.4900857
vt -4.903926 0.9754516
vt 4.903926 0.9754516
vt -4.784702 1.451423
vt 4.784702 1.451423
vt -4.619398 1.913417
vt 4.619398 1.913417
vt -4.409606 2.356984
vt 4.409606 2.356984
vt -4.157348 2.777851
vt 4.157348 2.777851
vt -3.865052 3.171966
vt 3.865052 3.171966
vt -3.535534 3.535534
vt 3.535534 3.535534
vt -3.171966 3.865052
vt 3.171966 3.865052
vt -2.777851 4.157348
vt 2.777851 4.157348
vt -2.356984 4.409606
vt 2.356984 4.409606
vt -1.913417 4.619398
vt 1.913417 4.619398
vt -1.451423 4.784702
vt 1.451423 4.784702
vt -0.9754518 4.903926
vt 0.9754518 4.903926
vt -0.4900857 4.975924
vt 0.4900857 4.975924
vt 2.185569E-07 5
vt 4.975924 -0.4900852
vt -4.975924 -0.4900852
vt 4.903926 -0.9754512
vt -4.903926 -0.9754512
vt 4.784702 -1.451423
vt -4.784702 -1.451423
vt 4.619398 -1.913417
vt -4.619398 -1.913417
vt 4.409606 -2.356984
vt -4.409606 -2.356984
vt 4.157348 -2.777852
vt -4.157348 -2.777852
vt 3.865053 -3.171966
vt -3.865053 -3.171966
vt 3.535534 -3.535533
vt -3.535534 -3.535533
vt 3.171967 -3.865052
vt -3.171967 -3.865052
vt 2.777852 -4.157347
vt -2.777852 -4.157347
vt 2.356983 -4.409606
vt -2.356983 -4.409606
vt 1.913418 -4.619398
vt -1.913418 -4.619398
vt 1.451423 -4.784702
vt -1.451423 -4.784702
vt 0.9754519 -4.903926
vt -0.9754519 -4.903926
vt 0.490087 -4.975924
vt -0.490087 -4.975924
vt -5.96244E-08 -5

vn -1 0 2.424359E-08
vn -0.9951847 0 0.09801717
vn -0.9807853 0 0.1950901
vn -0.9569404 0 0.2902846
vn -0.9238796 0 0.3826834
vn -0.8819213 0 0.4713967
vn -0.8314696 0 0.5555702
vn -0.7730104 0 0.6343933
vn -0.7071066 0 0.7071069
vn -0.6343933 0 0.7730104
vn -0.5555702 0 0.8314697
vn -0.4713967 0 0.8819213
vn -0.3826837 0 0.9238794
vn -0.2902847 0 0.9569404
vn -0.1950901 0 0.9807853
vn -0.09801713 0 0.9951847
vn 2.797337E-08 0 1
vn 0.09801716 0 0.9951847
vn 0.1950904 0 0.9807853
vn 0.2902848 0 0.9569403
vn 0.3826833 0 0.9238796
vn 0.4713967 0 0.8819213
vn 0.55557 0 0.8314697
vn 0.6343932 0 0.7730106
vn 0.7071068 0 0.7071068
vn 0.7730106 0 0.6343932
vn 0.8314697 0 0.5555701
vn 0.8819212 0 0.471397
vn 0.9238794 0 0.3826838
vn 0.9569404 0 0.2902846
vn 0.9807854 0 0.19509
vn 0.9951847 0 0.09801714
vn 1 0 -5.967653E-08
vn 0.9951847 0 -0.09801719
vn 0.9807854 0 -0.19509
vn 0.9569404 0 -0.2902846
vn 0.9238794 0 -0.3826837
vn 0.8819212 0 -0.4713968
vn 0.8314697 0 -0.55557
vn 0.7730104 0 -0.6343933
vn 0.7071068 0 -0.7071068
vn 0.6343933 0 -0.7730104
vn 0.5555703 0 -0.8314695
vn 0.4713972 0 -0.8819211
vn 0.3826834 0 -0.9238796
vn 0.2902845 0 -0.9569404
vn 0.1950905 0 -0.9807853
vn 0.09801725 0 -0.9951847
vn -1.174882E-07 0 -1
vn -0.09801701 0 -0.9951848
vn -0.1950901 0 -0.9807854
vn -0.2902849 0 -0.9569403
vn -0.3826834 0 -0.9238796
vn -0.4713966 0 -0.8819214
vn -0.5555702 0 -0.8314696
vn -0.6343933 0 -0.7730104
vn -0.7071068 0 -0.7071068
vn -0.7730101 0 -0.6343936
vn -0.8314697 0 -0.5555702
vn -0.8819214 0 -0.4713965
vn -0.9238794 0 -0.3826836
vn -0.9569404 0 -0.2902847
vn -0.9807853 0 -0.1950904
vn -0.9951847 0 -0.09801729
vn 0 -1 0
vn 0 1 0

usemtl ProBuilderDefault
f 1/5/65 129/6/65 3/7/65
f 3/7/65 129/6/65 5/10/65
f 5/10/65 129/6/65 7/12/65
f 7/12/65 129/6/65 9/14/65
f 9/14/65 129/6/65 11/16/65
f 11/16/65 129/6/65 13/18/65
f 13/18/65 129/6/65 15/20/65
f 15/20/65 129/6/65 17/22/65
f 17/22/65 129/6/65 19/24/65
f 19/24/65 129/6/65 21/26/65
f 21/26/65 129/6/65 23/28/65
f 23/28/65 129/6/65 25/30/65
f 25/30/65 129/6/65 27/32/65
f 27/32/65 129/6/65 29/34/65
f 29/34/65 129/6/65 31/36/65
f 31/36/65 129/6/65 33/38/65
f 33/38/65 129/6/65 35/37/65
f 35/37/65 129/6/65 37/35/65
f 37/35/65 129/6/65 39/33/65
f 39/33/65 129/6/65 41/31/65
f 41/31/65 129/6/65 43/29/65
f 43/29/65 129/6/65 45/27/65
f 45/27/65 129/6/65 47/25/65
f 47/25/65 129/6/65 49/23/65
f 49/23/65 129/6/65 51/21/65
f 51/21/65 129/6/65 53/19/65
f 53/19/65 129/6/65 55/17/65
f 55/17/65 129/6/65 57/15/65
f 57/15/65 129/6/65 59/13/65
f 59/13/65 129/6/65 61/11/65
f 61/11/65 129/6/65 63/9/65
f 63/9/65 129/6/65 65/8/65
f 65/8/65 129/6/65 67/39/65
f 67/39/65 129/6/65 69/41/65
f 69/41/65 129/6/65 71/43/65
f 71/43/65 129/6/65 73/45/65
f 73/45/65 129/6/65 75/47/65
f 75/47/65 129/6/65 77/49/65
f 77/49/65 129/6/65 79/51/65
f 79/51/65 129/6/65 81/53/65
f 81/53/65 129/6/65 83/55/65
f 83/55/65 129/6/65 85/57/65
f 85/57/65 129/6/65 87/59/65
f 87/59/65 129/6/65 89/61/65
f 89/61/65 129/6/65 91/63/65
f 91/63/65 129/6/65 93/65/65
f 93/65/65 129/6/65 95/67/65
f 95/67/65 129/6/65 97/69/65
f 97/69/65 129/6/65 99/68/65
f 99/68/65 129/6/65 101/66/65
f 101/66/65 129/6/65 103/64/65
f 103/64/65 129/6/65 105/62/65
f 105/62/65 129/6/65 107/60/65
f 107/60/65 129/6/65 109/58/65
f 109/58/65 129/6/65 111/56/65
f 111/56/65 129/6/65 113/54/65
f 113/54/65 129/6/65 115/52/65
f 115/52/65 129/6/65 117/50/65
f 117/50/65 129/6/65 119/48/65
f 119/48/65 129/6/65 121/46/65
f 121/46/65 129/6/65 123/44/65
f 123/44/65 129/6/65 125/42/65
f 125/42/65 129/6/65 127/40/65
f 127/40/65 129/6/65 1/5/65
f 4/9/66 130/6/66 2/8/66
f 6/11/66 130/6/66 4/9/66
f 8/13/66 130/6/66 6/11/66
f 10/15/66 130/6/66 8/13/66
f 12/17/66 130/6/66 10/15/66
f 14/19/66 130/6/66 12/17/66
f 16/21/66 130/6/66 14/19/66
f 18/23/66 130/6/66 16/21/66
f 20/25/66 130/6/66 18/23/66
f 22/27/66 130/6/66 20/25/66
f 24/29/66 130/6/66 22/27/66
f 26/31/66 130/6/66 24/29/66
f 28/33/66 130/6/66 26/31/66
f 30/35/66 130/6/66 28/33/66
f 32/37/66 130/6/66 30/35/66
f 34/38/66 130/6/66 32/37/66
f 36/36/66 130/6/66 34/38/66
f 38/34/66 130/6/66 36/36/66
f 40/32/66 130/6/66 38/34/66
f 42/30/66 130/6/66 40/32/66
f 44/28/66 130/6/66 42/30/66
f 46/26/66 130/6/66 44/28/66
f 48/24/66 130/6/66 46/26/66
f 50/22/66 130/6/66 48/24/66
f 52/20/66 130/6/66 50/22/66
f 54/18/66 130/6/66 52/20/66
f 56/16/66 130/6/66 54/18/66
f 58/14/66 130/6/66 56/16/66
f 60/12/66 130/6/66 58/14/66
f 62/10/66 130/6/66 60/12/66
f 64/7/66 130/6/66 62/10/66
f 66/5/66 130/6/66 64/7/66
f 68/40/66 130/6/66 66/5/66
f 70/42/66 130/6/66 68/40/66
f 72/44/66 130/6/66 70/42/66
f 74/46/66 130/6/66 72/44/66
f 76/48/66 130/6/66 74/46/66
f 78/50/66 130/6/66 76/48/66
f 80/52/66 130/6/66 78/50/66
f 82/54/66 130/6/66 80/52/66
f 84/56/66 130/6/66 82/54/66
f 86/58/66 130/6/66 84/56/66
f 88/60/66 130/6/66 86/58/66
f 90/62/66 130/6/66 88/60/66
f 92/64/66 130/6/66 90/62/66
f 94/66/66 130/6/66 92/64/66
f 96/68/66 130/6/66 94/66/66
f 98/69/66 130/6/66 96/68/66
f 100/67/66 130/6/66 98/69/66
f 102/65/66 130/6/66 100/67/66
f 104/63/66 130/6/66 102/65/66
f 106/61/66 130/6/66 104/63/66
f 108/59/66 130/6/66 106/61/66
f 110/57/66 130/6/66 108/59/66
f 112/55/66 130/6/66 110/57/66
f 114/53/66 130/6/66 112/55/66
f 116/51/66 130/6/66 114/53/66
f 118/49/66 130/6/66 116/51/66
f 120/47/66 130/6/66 118/49/66
f 122/45/66 130/6/66 120/47/66
f 124/43/66 130/6/66 122/45/66
f 126/41/66 130/6/66 124/43/66
f 128/39/66 130/6/66 126/41/66
f 2/8/66 130/6/66 128/39/66
f 4/4/2 2/2/1 1/1/1
f 1/1/1 3/3/2 4/4/2
f 6/4/3 4/2/2 3/1/2
f 3/1/2 5/3/3 6/4/3
f 8/4/4 6/2/3 5/1/3
f 5/1/3 7/3/4 8/4/4
f 10/4/5 8/2/4 7/1/4
f 7/1/4 9/3/5 10/4/5
f 12/4/6 10/2/5 9/1/5
f 9/1/5 11/3/6 12/4/6
f 14/4/7 12/2/6 11/1/6
f 11/1/6 13/3/7 14/4/7
f 16/4/8 14/2/7 13/1/7
f 13/1/7 15/3/8 16/4/8
f 18/4/9 16/2/8 15/1/8
f 15/1/8 17/3/9 18/4/9
f 20/4/10 18/2/9 17/1/9
f 17/1/9 19/3/10 20/4/10
f 22/4/11 20/2/10 19/1/10
f 19/1/10 21/3/11 22/4/11
f 24/4/12 22/2/11 21/1/11
f 21/1/11 23/3/12 24/4/12
f 26/4/13 24/2/12 23/1/12
f 23/1/12 25/3/13 26/4/13
f 28/4/14 26/2/13 25/1/13
f 25/1/13 27/3/14 28/4/14
f 30/4/15 28/2/14 27/1/14
f 27/1/14 29/3/15 30/4/15
f 32/4/16 30/2/15 29/1/15
f 29/1/15 31/3/16 32/4/16
f 34/4/17 32/2/16 31/1/16
f 31/1/16 33/3/17 34/4/17
f 36/4/18 34/2/17 33/1/17
f 33/1/17 35/3/18 36/4/18
f 38/4/19 36/2/18 35/1/18
f 35/1/18 37/3/19 38/4/19
f 40/4/20 38/2/19 37/1/19
f 37/1/19 39/3/20 40/4/20
f 42/4/21 40/2/20 39/1/20
f 39/1/20 41/3/21 42/4/21
f 44/4/22 42/2/21 41/1/21
f 41/1/21 43/3/22 44/4/22
f 46/4/23 44/2/22 43/1/22
f 43/1/22 45/3/23 46/4/23
f 48/4/24 46/2/23 45/1/23
f 45/1/23 47/3/24 48/4/24
f 50/4/25 48/2/24 47/1/24
f 47/1/24 49/3/25 50/4/25
f 52/4/26 50/2/25 49/1/25
f 49/1/25 51/3/26 52/4/26
f 54/4/27 52/2/26 51/1/26
f 51/1/26 53/3/27 54/4/27
f 56/4/28 54/2/27 53/1/27
f 53/1/27 55/3/28 56/4/28
f 58/4/29 56/2/28 55/1/28
f 55/1/28 57/3/29 58/4/29
f 60/4/30 58/2/29 57/1/29
f 57/1/29 59/3/30 60/4/30
f 62/4/31 60/2/30 59/1/30
f 59/1/30 61/3/31 62/4/31
f 64/4/32 62/2/31 61/1/31
f 61/1/31 63/3/32 64/4/32
f 66/4/33 64/2/32 63/1/32
f 63/1/32 65/3/33 66/4/33
f 68/4/34 66/2/33 65/1/33
f 65/1/33 67/3/34 68/4/34
f 70/4/35 68/2/34 67/1/34
f 67/1/34 69/3/35 70/4/35
f 72/4/36 70/2/35 69/1/35
f 69/1/35 71/3/36 72/4/36
f 74/4/37 72/2/36 71/1/36
f 71/1/36 73/3/37 74/4/37
f 76/4/38 74/2/37 73/1/37
f 73/1/37 75/3/38 76/4/38
f 78/4/39 76/2/38 75/1/38
f 75/1/38 77/3/39 78/4/39
f 80/4/40 78/2/39 77/1/39
f 77/1/39 79/3/40 80/4/40
f 82/4/41 80/2/40 79/1/40
f 79/1/40 81/3/41 82/4/41
f 84/4/42 82/2/41 81/1/41
f 81/1/41 83/3/42 84/4/42
f 86/4/43 84/2/42 83/1/42
f 83/1/42 85/3/43 86/4/43
f 88/4/44 86/2/43 85/1/43
f 85/1/43 87/3/44 88/4/44
f 90/4/45 88/2/44 87/1/44
f 87/1/44 89/3/45 90/4/45
f 92/4/46 90/2/45 89/1/45
f 89/1/45 91/3/46 92/4/46
f 94/4/47 92/2/46 91/1/46
f 91/1/46 93/3/47 94/4/47
f 96/4/48 94/2/47 93/1/47
f 93/1/47 95/3/48 96/4/48
f 98/4/49 96/2/48 95/1/48
f 95/1/48 97/3/49 98/4/49
f 100/4/50 98/2/49 97/1/49
f 97/1/49 99/3/50 100/4/50
f 102/4/51 100/2/50 99/1/50
f 99/1/50 101/3/51 102/4/51
f 104/4/52 102/2/51 101/1/51
f 101/1/51 103/3/52 104/4/52
f 106/4/53 104/2/52 103/1/52
f 103/1/52 105/3/53 106/4/53
f 108/4/54 106/2/53 105/1/53
f 105/1/53 107/3/54 108/4/54
f 110/4/55 108/2/54 107/1/54
f 107/1/54 109/3/55 110/4/55
f 112/4/56 110/2/55 109/1/55
f 109/1/55 111/3/56 112/4/56
f 114/4/57 112/2/56 111/1/56
f 111/1/56 113/3/57 114/4/57
f 116/4/58 114/2/57 113/1/57
f 113/1/57 115/3/58 116/4/58
f 118/4/59 116/2/58 115/1/58
f 115/1/58 117/3/59 118/4/59
f 120/4/60 118/2/59 117/1/59
f 117/1/59 119/3/60 120/4/60
f 122/4/61 120/2/60 119/1/60
f 119/1/60 121/3/61 122/4/61
f 124/4/62 122/2/61 121/1/61
f 121/1/61 123/3/62 124/4/62
f 126/4/63 124/2/62 123/1/62
f 123/1/62 125/3/63 126/4/63
f 128/4/64 126/2/63 125/1/63
f 125/1/63 127/3/64 128/4/64
f 2/4/1 128/2/64 127/1/64
f 127/1/64 1/3/1 2/4/1

